<?xml version="1.0" encoding="UTF-8" standalone="no"?>
<!DOCTYPE svg PUBLIC "-//W3C//DTD SVG 1.1//EN"
 "http://www.w3.org/Graphics/SVG/1.1/DTD/svg11.dtd">
<!-- Generated by graphviz version 2.38.0 (20140413.2041)
 -->
<!-- Title: controllers_diagram Pages: 1 -->
<svg width="360pt" height="245pt"
 viewBox="0.00 0.00 359.58 245.00" xmlns="http://www.w3.org/2000/svg" xmlns:xlink="http://www.w3.org/1999/xlink">
<g id="graph0" class="graph" transform="scale(1 1) rotate(0) translate(67.8896 129.5)">
<title>controllers_diagram</title>
<polygon fill="none" stroke="none" points="-67.8896,115.5 -67.8896,-129.5 291.688,-129.5 291.688,115.5 -67.8896,115.5"/>
<!-- _diagram_info -->
<g id="node1" class="node"><title>_diagram_info</title>
<text text-anchor="start" x="88.3123" y="20.9" font-family="Times,serif" font-size="13.00">Controllers diagram</text>
<text text-anchor="start" x="88.3123" y="33.9" font-family="Times,serif" font-size="13.00">Date: Aug 01 2016 &#45; 20:05</text>
<text text-anchor="start" x="88.3123" y="46.9" font-family="Times,serif" font-size="13.00">Migration version: 20160801225610</text>
<text text-anchor="start" x="88.3123" y="59.9" font-family="Times,serif" font-size="13.00">Generated by RailRoady 1.5.1</text>
<text text-anchor="start" x="88.3123" y="72.9" font-family="Times,serif" font-size="13.00">http://railroady.prestonlee.com</text>
</g>
<!-- ApplicationController -->
<g id="node2" class="node"><title>ApplicationController</title>
<path fill="none" stroke="black" d="M92.1792,-33C92.1792,-33 207.821,-33 207.821,-33 213.821,-33 219.821,-39 219.821,-45 219.821,-45 219.821,-113 219.821,-113 219.821,-119 213.821,-125 207.821,-125 207.821,-125 92.1792,-125 92.1792,-125 86.1792,-125 80.1792,-119 80.1792,-113 80.1792,-113 80.1792,-45 80.1792,-45 80.1792,-39 86.1792,-33 92.1792,-33"/>
<text text-anchor="middle" x="150" y="-109.8" font-family="Times,serif" font-size="14.00">ApplicationController</text>
<polyline fill="none" stroke="black" points="80.1792,-103 219.821,-103 "/>
<polyline fill="none" stroke="black" points="80.1792,-79 219.821,-79 "/>
<polyline fill="none" stroke="black" points="80.1792,-55 219.821,-55 "/>
<text text-anchor="start" x="88.1792" y="-39.8" font-family="Times,serif" font-size="14.00">_layout</text>
</g>
<!-- SongsController -->
<g id="node3" class="node"><title>SongsController</title>
<path fill="none" stroke="black" d="M-51.8896,111C-51.8896,111 31.8896,111 31.8896,111 37.8896,111 43.8896,105 43.8896,99 43.8896,99 43.8896,-79 43.8896,-79 43.8896,-85 37.8896,-91 31.8896,-91 31.8896,-91 -51.8896,-91 -51.8896,-91 -57.8896,-91 -63.8896,-85 -63.8896,-79 -63.8896,-79 -63.8896,99 -63.8896,99 -63.8896,105 -57.8896,111 -51.8896,111"/>
<text text-anchor="middle" x="-10" y="-75.8" font-family="Times,serif" font-size="14.00">SongsController</text>
<polyline fill="none" stroke="black" points="-63.8896,-69 43.8896,-69 "/>
<text text-anchor="start" x="-55.8896" y="-53.8" font-family="Times,serif" font-size="14.00">index</text>
<text text-anchor="start" x="-55.8896" y="-39.8" font-family="Times,serif" font-size="14.00">destroy</text>
<text text-anchor="start" x="-55.8896" y="-25.8" font-family="Times,serif" font-size="14.00">edit</text>
<text text-anchor="start" x="-55.8896" y="-11.8" font-family="Times,serif" font-size="14.00">create</text>
<text text-anchor="start" x="-55.8896" y="2.2" font-family="Times,serif" font-size="14.00">new</text>
<text text-anchor="start" x="-55.8896" y="16.2" font-family="Times,serif" font-size="14.00">show</text>
<text text-anchor="start" x="-55.8896" y="30.2" font-family="Times,serif" font-size="14.00">update</text>
<polyline fill="none" stroke="black" points="-63.8896,37 43.8896,37 "/>
<polyline fill="none" stroke="black" points="-63.8896,61 43.8896,61 "/>
<text text-anchor="start" x="-55.8896" y="76.2" font-family="Times,serif" font-size="14.00">_layout</text>
<text text-anchor="start" x="-55.8896" y="90.2" font-family="Times,serif" font-size="14.00">set_song</text>
<text text-anchor="start" x="-55.8896" y="104.2" font-family="Times,serif" font-size="14.00">song_params</text>
</g>
</g>
</svg>
