<?xml version="1.0" encoding="UTF-8" standalone="no"?>
<!DOCTYPE svg PUBLIC "-//W3C//DTD SVG 1.1//EN"
 "http://www.w3.org/Graphics/SVG/1.1/DTD/svg11.dtd">
<!-- Generated by graphviz version 2.38.0 (20140413.2041)
 -->
<!-- Title: models_diagram Pages: 1 -->
<svg width="380pt" height="225pt"
 viewBox="0.00 0.00 379.68 225.00" xmlns="http://www.w3.org/2000/svg" xmlns:xlink="http://www.w3.org/1999/xlink">
<g id="graph0" class="graph" transform="scale(1 1) rotate(0) translate(4 221)">
<title>models_diagram</title>
<polygon fill="none" stroke="none" points="-4,4 -4,-221 375.676,-221 375.676,4 -4,4"/>
<!-- _diagram_info -->
<g id="node1" class="node"><title>_diagram_info</title>
<text text-anchor="start" x="8" y="-202.6" font-family="Times,serif" font-size="13.00">Models diagram</text>
<text text-anchor="start" x="8" y="-189.6" font-family="Times,serif" font-size="13.00">Date: Aug 01 2016 &#45; 20:05</text>
<text text-anchor="start" x="8" y="-176.6" font-family="Times,serif" font-size="13.00">Migration version: 20160801225610</text>
<text text-anchor="start" x="8" y="-163.6" font-family="Times,serif" font-size="13.00">Generated by RailRoady 1.5.1</text>
<text text-anchor="start" x="8" y="-150.6" font-family="Times,serif" font-size="13.00">http://railroady.prestonlee.com</text>
</g>
<!-- Ability -->
<g id="node2" class="node"><title>Ability</title>
<polygon fill="none" stroke="black" points="281.358,-198.5 226.018,-198.5 226.018,-162.5 281.358,-162.5 281.358,-198.5"/>
<text text-anchor="middle" x="253.688" y="-176.3" font-family="Times,serif" font-size="14.00">Ability</text>
</g>
<!-- Song -->
<g id="node3" class="node"><title>Song</title>
<ellipse fill="none" stroke="black" cx="327.688" cy="-180.5" rx="28.0822" ry="18"/>
<text text-anchor="middle" x="327.688" y="-176.3" font-family="Times,serif" font-size="14.00">Song</text>
</g>
<!-- User -->
<g id="node4" class="node"><title>User</title>
<ellipse fill="none" stroke="black" cx="299.688" cy="-90" rx="27" ry="18"/>
<text text-anchor="middle" x="299.688" y="-85.8" font-family="Times,serif" font-size="14.00">User</text>
</g>
<!-- Song&#45;&gt;User -->
<g id="edge2" class="edge"><title>Song&#45;&gt;User</title>
<path fill="none" stroke="#25b968" d="M319.263,-152.871C315.708,-141.637 311.581,-128.591 308.035,-117.383"/>
<polygon fill="#25b968" stroke="#25b968" points="319.273,-152.902 317.999,-163.794 320.781,-157.669 322.289,-162.436 322.289,-162.436 322.289,-162.436 320.781,-157.669 326.579,-161.079 319.273,-152.902 319.273,-152.902"/>
<polygon fill="#25b968" stroke="#25b968" points="307.991,-117.245 309.265,-106.354 306.483,-112.478 304.975,-107.711 304.975,-107.711 304.975,-107.711 306.483,-112.478 300.685,-109.069 307.991,-117.245 307.991,-117.245"/>
</g>
<!-- UserSong -->
<g id="node5" class="node"><title>UserSong</title>
<ellipse fill="none" stroke="black" cx="326.688" cy="-18" rx="44.9768" ry="18"/>
<text text-anchor="middle" x="326.688" y="-13.8" font-family="Times,serif" font-size="14.00">UserSong</text>
</g>
<!-- Song&#45;&gt;UserSong -->
<g id="edge1" class="edge"><title>Song&#45;&gt;UserSong</title>
<path fill="none" stroke="#363c64" d="M331.822,-154.276C334.853,-132.484 338.061,-100.152 335.688,-72 334.971,-63.4991 333.619,-54.3119 332.176,-46.0122"/>
<ellipse fill="none" stroke="#363c64" cx="331.217" cy="-158.405" rx="4.00001" ry="4.00001"/>
<polygon fill="#363c64" stroke="#363c64" points="332.16,-45.9257 334.767,-35.2741 331.251,-41.0091 330.342,-36.0925 330.342,-36.0925 330.342,-36.0925 331.251,-41.0091 325.917,-36.9109 332.16,-45.9257 332.16,-45.9257"/>
</g>
<!-- User&#45;&gt;UserSong -->
<g id="edge3" class="edge"><title>User&#45;&gt;UserSong</title>
<path fill="none" stroke="#d7db61" d="M309.031,-64.7779C311.435,-58.544 314.035,-51.8046 316.48,-45.4634"/>
<ellipse fill="none" stroke="#d7db61" cx="307.526" cy="-68.679" rx="4.00001" ry="4.00001"/>
<polygon fill="#d7db61" stroke="#d7db61" points="316.549,-45.2862 324.346,-37.5757 318.348,-40.6212 320.147,-35.9562 320.147,-35.9562 320.147,-35.9562 318.348,-40.6212 315.949,-34.3368 316.549,-45.2862 316.549,-45.2862"/>
</g>
</g>
</svg>
