<?xml version="1.0" encoding="UTF-8" standalone="no"?>
<!DOCTYPE svg PUBLIC "-//W3C//DTD SVG 1.1//EN"
 "http://www.w3.org/Graphics/SVG/1.1/DTD/svg11.dtd">
<!-- Generated by graphviz version 2.38.0 (20140413.2041)
 -->
<!-- Title: models_diagram Pages: 1 -->
<svg width="556pt" height="537pt"
 viewBox="0.00 0.00 555.55 537.00" xmlns="http://www.w3.org/2000/svg" xmlns:xlink="http://www.w3.org/1999/xlink">
<g id="graph0" class="graph" transform="scale(1 1) rotate(0) translate(4 533)">
<title>models_diagram</title>
<polygon fill="none" stroke="none" points="-4,4 -4,-533 551.55,-533 551.55,4 -4,4"/>
<!-- _diagram_info -->
<g id="node1" class="node"><title>_diagram_info</title>
<text text-anchor="start" x="8" y="-493.6" font-family="Times,serif" font-size="13.00">Models diagram</text>
<text text-anchor="start" x="8" y="-480.6" font-family="Times,serif" font-size="13.00">Date: Aug 01 2016 &#45; 20:05</text>
<text text-anchor="start" x="8" y="-467.6" font-family="Times,serif" font-size="13.00">Migration version: 20160801225610</text>
<text text-anchor="start" x="8" y="-454.6" font-family="Times,serif" font-size="13.00">Generated by RailRoady 1.5.1</text>
<text text-anchor="start" x="8" y="-441.6" font-family="Times,serif" font-size="13.00">http://railroady.prestonlee.com</text>
</g>
<!-- Ability -->
<g id="node2" class="node"><title>Ability</title>
<polygon fill="none" stroke="black" points="225.853,-449.5 225.853,-493.5 281.522,-493.5 281.522,-449.5 225.853,-449.5"/>
<text text-anchor="middle" x="253.688" y="-478.3" font-family="Times,serif" font-size="14.00">Ability</text>
<polyline fill="none" stroke="black" points="225.853,-471.5 281.522,-471.5 "/>
<text text-anchor="middle" x="253.688" y="-456.3" font-family="Times,serif" font-size="14.00"> </text>
</g>
<!-- Song -->
<g id="node3" class="node"><title>Song</title>
<path fill="none" stroke="black" d="M311.825,-414.5C311.825,-414.5 535.55,-414.5 535.55,-414.5 541.55,-414.5 547.55,-420.5 547.55,-426.5 547.55,-426.5 547.55,-516.5 547.55,-516.5 547.55,-522.5 541.55,-528.5 535.55,-528.5 535.55,-528.5 311.825,-528.5 311.825,-528.5 305.825,-528.5 299.825,-522.5 299.825,-516.5 299.825,-516.5 299.825,-426.5 299.825,-426.5 299.825,-420.5 305.825,-414.5 311.825,-414.5"/>
<text text-anchor="middle" x="423.688" y="-513.3" font-family="Times,serif" font-size="14.00">Song</text>
<polyline fill="none" stroke="black" points="299.825,-506.5 547.55,-506.5 "/>
<text text-anchor="start" x="307.825" y="-491.3" font-family="Times,serif" font-size="14.00">id :integer</text>
<text text-anchor="start" x="307.825" y="-477.3" font-family="Times,serif" font-size="14.00">name :character varying</text>
<text text-anchor="start" x="307.825" y="-463.3" font-family="Times,serif" font-size="14.00">duration :integer</text>
<text text-anchor="start" x="307.825" y="-449.3" font-family="Times,serif" font-size="14.00">genre_id :character varying</text>
<text text-anchor="start" x="307.825" y="-435.3" font-family="Times,serif" font-size="14.00">created_at :timestamp without time zone</text>
<text text-anchor="start" x="307.825" y="-421.3" font-family="Times,serif" font-size="14.00">updated_at :timestamp without time zone</text>
</g>
<!-- User -->
<g id="node4" class="node"><title>User</title>
<path fill="none" stroke="black" d="M182.053,-137.5C182.053,-137.5 477.323,-137.5 477.323,-137.5 483.323,-137.5 489.323,-143.5 489.323,-149.5 489.323,-149.5 489.323,-365.5 489.323,-365.5 489.323,-371.5 483.323,-377.5 477.323,-377.5 477.323,-377.5 182.053,-377.5 182.053,-377.5 176.053,-377.5 170.053,-371.5 170.053,-365.5 170.053,-365.5 170.053,-149.5 170.053,-149.5 170.053,-143.5 176.053,-137.5 182.053,-137.5"/>
<text text-anchor="middle" x="329.688" y="-362.3" font-family="Times,serif" font-size="14.00">User</text>
<polyline fill="none" stroke="black" points="170.053,-355.5 489.323,-355.5 "/>
<text text-anchor="start" x="178.053" y="-340.3" font-family="Times,serif" font-size="14.00">updated_at :timestamp without time zone</text>
<text text-anchor="start" x="178.053" y="-326.3" font-family="Times,serif" font-size="14.00">email :character varying</text>
<text text-anchor="start" x="178.053" y="-312.3" font-family="Times,serif" font-size="14.00">encrypted_password :character varying</text>
<text text-anchor="start" x="178.053" y="-298.3" font-family="Times,serif" font-size="14.00">reset_password_token :character varying</text>
<text text-anchor="start" x="178.053" y="-284.3" font-family="Times,serif" font-size="14.00">reset_password_sent_at :timestamp without time zone</text>
<text text-anchor="start" x="178.053" y="-270.3" font-family="Times,serif" font-size="14.00">remember_created_at :timestamp without time zone</text>
<text text-anchor="start" x="178.053" y="-256.3" font-family="Times,serif" font-size="14.00">sign_in_count :integer</text>
<text text-anchor="start" x="178.053" y="-242.3" font-family="Times,serif" font-size="14.00">current_sign_in_at :timestamp without time zone</text>
<text text-anchor="start" x="178.053" y="-228.3" font-family="Times,serif" font-size="14.00">last_sign_in_at :timestamp without time zone</text>
<text text-anchor="start" x="178.053" y="-214.3" font-family="Times,serif" font-size="14.00">current_sign_in_ip :inet</text>
<text text-anchor="start" x="178.053" y="-200.3" font-family="Times,serif" font-size="14.00">last_sign_in_ip :inet</text>
<text text-anchor="start" x="178.053" y="-186.3" font-family="Times,serif" font-size="14.00">name :character varying</text>
<text text-anchor="start" x="178.053" y="-172.3" font-family="Times,serif" font-size="14.00">role :integer</text>
<text text-anchor="start" x="178.053" y="-158.3" font-family="Times,serif" font-size="14.00">created_at :timestamp without time zone</text>
<text text-anchor="start" x="178.053" y="-144.3" font-family="Times,serif" font-size="14.00">id :integer</text>
</g>
<!-- Song&#45;&gt;User -->
<g id="edge2" class="edge"><title>Song&#45;&gt;User</title>
<path fill="none" stroke="#7adfcb" d="M394.626,-404.957C392.087,-399.23 389.465,-393.317 386.798,-387.301"/>
<polygon fill="#7adfcb" stroke="#7adfcb" points="394.691,-405.103 394.631,-416.069 396.718,-409.674 398.744,-414.244 398.744,-414.244 398.744,-414.244 396.718,-409.674 402.858,-412.42 394.691,-405.103 394.691,-405.103"/>
<polygon fill="#7adfcb" stroke="#7adfcb" points="386.627,-386.917 386.688,-375.951 384.601,-382.346 382.574,-377.775 382.574,-377.775 382.574,-377.775 384.601,-382.346 378.46,-379.599 386.627,-386.917 386.627,-386.917"/>
</g>
<!-- UserSong -->
<g id="node5" class="node"><title>UserSong</title>
<path fill="none" stroke="black" d="M311.825,-0.5C311.825,-0.5 535.55,-0.5 535.55,-0.5 541.55,-0.5 547.55,-6.5 547.55,-12.5 547.55,-12.5 547.55,-88.5 547.55,-88.5 547.55,-94.5 541.55,-100.5 535.55,-100.5 535.55,-100.5 311.825,-100.5 311.825,-100.5 305.825,-100.5 299.825,-94.5 299.825,-88.5 299.825,-88.5 299.825,-12.5 299.825,-12.5 299.825,-6.5 305.825,-0.5 311.825,-0.5"/>
<text text-anchor="middle" x="423.688" y="-85.3" font-family="Times,serif" font-size="14.00">UserSong</text>
<polyline fill="none" stroke="black" points="299.825,-78.5 547.55,-78.5 "/>
<text text-anchor="start" x="307.825" y="-63.3" font-family="Times,serif" font-size="14.00">id :integer</text>
<text text-anchor="start" x="307.825" y="-49.3" font-family="Times,serif" font-size="14.00">song_id :integer</text>
<text text-anchor="start" x="307.825" y="-35.3" font-family="Times,serif" font-size="14.00">user_id :integer</text>
<text text-anchor="start" x="307.825" y="-21.3" font-family="Times,serif" font-size="14.00">created_at :timestamp without time zone</text>
<text text-anchor="start" x="307.825" y="-7.3" font-family="Times,serif" font-size="14.00">updated_at :timestamp without time zone</text>
</g>
<!-- Song&#45;&gt;UserSong -->
<g id="edge1" class="edge"><title>Song&#45;&gt;UserSong</title>
<path fill="none" stroke="#bdc567" d="M483.572,-407.579C489.726,-398.233 495.047,-388.271 498.688,-378 534.473,-277.044 536.424,-237.244 498.688,-137 494.998,-127.197 489.616,-117.786 483.403,-109.025"/>
<ellipse fill="none" stroke="#bdc567" cx="481.226" cy="-410.979" rx="4.00002" ry="4.00002"/>
<polygon fill="#bdc567" stroke="#bdc567" points="483.244,-108.814 480.812,-98.1212 480.232,-104.823 477.22,-100.832 477.22,-100.832 477.22,-100.832 480.232,-104.823 473.628,-103.543 483.244,-108.814 483.244,-108.814"/>
</g>
<!-- User&#45;&gt;UserSong -->
<g id="edge3" class="edge"><title>User&#45;&gt;UserSong</title>
<path fill="none" stroke="#9e0129" d="M387.801,-129.763C390.946,-122.904 394.021,-116.198 396.965,-109.779"/>
<ellipse fill="none" stroke="#9e0129" cx="386.035" cy="-133.615" rx="4.00002" ry="4.00002"/>
<polygon fill="#9e0129" stroke="#9e0129" points="397.008,-109.684 405.267,-102.47 399.092,-105.139 401.176,-100.594 401.176,-100.594 401.176,-100.594 399.092,-105.139 397.086,-98.7188 397.008,-109.684 397.008,-109.684"/>
</g>
</g>
</svg>
